# xmcd
#
# Track frame offsets: 
#        150
#        1410
#        18943
#        39691
#        58673
#        77077
#        95735
#        114731
#        133173
#        152461
#        167434
#        184636
#        204990
#        226486
#        243211
#        263670
#
# Disc length: 3800 seconds
#
# Revision: 0
# Processed by: cddbd v1.5.2PL0 Copyright (c) Steve Scherf et al.
# Submitted via: ExactAudioCopy v1.0b1
#
DISCID=c60ed610
DTITLE=Alicia Keys - The Element of Freedom
DYEAR=2009
DGENRE=R&B
TTITLE0=Element of Freedom (Intro)
TTITLE1=Love Is Blind
TTITLE2=Doesn't Mean Anything
TTITLE3=Try Sleeping with a Broken Heart
TTITLE4=Wait Til You See My Smile
TTITLE5=That's How Strong My Love Is
TTITLE6=Un-Thinkable (I'm Ready)
TTITLE7=Love Is My Disease
TTITLE8=Like the Sea
TTITLE9=Put It in a Love Song (feat. Beyoncé)
TTITLE10=This Bed
TTITLE11=Distance and Time
TTITLE12=How It Feels to Fly
TTITLE13=Empire State of Mind (Part II) Broken Down
TTITLE14=Stolen Moments (Bonus Track)
TTITLE15=Heaven's Door (Bonus Track)
EXTD=
EXTT0=
EXTT1=
EXTT2=
EXTT3=
EXTT4=
EXTT5=
EXTT6=
EXTT7=
EXTT8=
EXTT9=
EXTT10=
EXTT11=
EXTT12=
EXTT13=
EXTT14=
EXTT15=
PLAYORDER=
